<svg xmlns="http://www.w3.org/2000/svg" viewBox="43.019999999999996 110.57 488.96 393.64"> <svg xmlns="http://www.w3.org/2000/svg" xmlns:xlink="http://www.w3.org/1999/xlink" version="1.1" id="Layer_1" x="117" y="180" viewBox="14.699999809265137 90.3401870727539 173.80001831054688 55.304588317871094" xml:space="preserve" height="108" width="341" preserveAspectRatio="xMinYMin" enable-background="new 0 0 200 200" style="overflow: visible;"><path class="st0" d="M41.2,107.7c2.1-1.3,4-2.2,6.1-3.1c2-0.9,4.2-1.8,6.9-2.9c0.5-0.2,1.1-0.4,2-0.8c0.9-0.3,2.1-0.8,3.7-1.3    c2-0.7,4.7-1.5,7.6-2.3c2.9-0.8,6.1-1.5,9.1-2c1.5-0.2,2.9-0.5,4.2-0.7c1.3-0.2,2.5-0.3,3.4-0.4c2-0.2,3.2-0.3,3.2-0.3    s0.3,0,0.7,0c0.5,0,1.1-0.1,2-0.1c0.8,0,1.9-0.1,3-0.1c1.1,0,2.4,0,3.7,0.1c2.6,0.1,5.5,0.3,8.3,0.6c2.8,0.3,5.5,0.6,7.8,1    c1.1,0.2,2.1,0.3,3,0.5c0.9,0.1,1.7,0.3,2.4,0.5c1.4,0.3,2.5,0.5,3.2,0.6c1.4,0.3,2.7,0.6,3.9,0.8c1.2,0.3,2.3,0.5,3.4,0.8    c0.5,0.1,1.1,0.2,1.6,0.4c0.5,0.1,1.1,0.3,1.6,0.5c1.1,0.3,2.2,0.7,3.3,1.1c-4.5-2.2-7.3-4.4-13.1-6.4c-0.7-0.3-1.8-0.6-3.2-1    c-0.7-0.2-1.5-0.5-2.4-0.7c-0.9-0.2-2-0.5-3.1-0.7c-2.3-0.5-5.1-1-8.1-1.2c-2.9-0.3-6-0.3-8.7-0.2c-1.4,0-2.7,0.1-3.8,0.2    c-1.2,0.1-2.2,0.1-3.1,0.2c-0.9,0.1-1.6,0.1-2.1,0.2c-0.5,0-0.7,0.1-0.7,0.1s-1.3,0.2-3.3,0.4c-1,0.1-2.2,0.4-3.5,0.6    c-1.3,0.2-2.8,0.6-4.3,0.9c-3,0.7-6.2,1.6-9.2,2.5c-2.9,1-5.6,2-7.6,2.8c-1.6,0.6-2.8,1.2-3.7,1.6c-0.9,0.4-1.5,0.7-2,0.9    C48.2,103,45.3,104.9,41.2,107.7z" style="fill: #34ffa8; fill-opacity: 1;"></path><path class="st0" d="M14.7,112c2.4-0.7,4.4-1.2,6.6-1.6c1.1-0.2,2.2-0.5,3.4-0.6c1.2-0.2,2.5-0.5,4-0.6c0.8-0.1,2-0.2,3.5-0.4    c0.7-0.1,1.6-0.1,2.4-0.2c0.4,0,0.8-0.1,1.3-0.1c0.5,0,0.9-0.1,1.4-0.1c1,0,1.9-0.1,2.9-0.1c8-0.2,17.5,0.5,26.4,2.4    c4.4,0.9,8.7,2,12.6,3.3c3.9,1.3,7.3,2.7,10.3,3.9c3,1.2,5.5,2.2,7.2,2.8c1.7,0.6,2.7,1,2.7,1s0.6,0.2,1.7,0.6    c1.1,0.4,2.7,0.9,4.7,1.4c4,1,9.9,2.1,16.4,1.5c6.5-0.5,13.5-2.3,20-4.3c6.4-2.1,12.6-3.9,17.9-4.2c1.1-0.1,2.1-0.1,3-0.1    c0.9,0,1.7,0.2,2.3,0.2c0.7,0.1,1.3,0.3,1.8,0.4c0.2,0.1,0.5,0.1,0.7,0.2c0.2,0.1,0.4,0.1,0.5,0.2c2.7,0.9,4.6,2.1,6.2,3.6    c1.6,1.4,2.9,3.2,4,5.4c-1-2.3-1.9-4.2-3.3-6.1c-1.3-1.9-3.2-3.6-6.1-4.9c-0.2-0.1-0.4-0.2-0.6-0.3c-0.2-0.1-0.5-0.2-0.8-0.3    c-0.6-0.2-1.2-0.4-1.9-0.6c-0.8-0.1-1.6-0.4-2.6-0.5c-1-0.1-2.1-0.2-3.3-0.2c-5.8-0.1-12.4,1.5-18.9,3.4    c-6.5,1.8-13.1,3.5-19.2,4.1c-6,0.7-11.5,0-15.3-0.9c-1.9-0.4-3.4-0.8-4.5-1.2c-1.1-0.3-1.6-0.5-1.6-0.5s-1-0.3-2.7-0.9    c-1.7-0.6-4.2-1.5-7.2-2.6c-6-2.3-14.4-5.2-23.5-6.7c-9.1-1.6-18.7-2.1-26.8-1.6c-1,0.1-2,0.1-3,0.2c-0.5,0-1,0.1-1.4,0.1    c-0.4,0.1-0.9,0.1-1.3,0.2c-0.9,0.1-1.7,0.2-2.5,0.3c-1.5,0.2-2.7,0.4-3.5,0.6c-1.5,0.2-2.8,0.6-4,0.8c-1.2,0.3-2.3,0.6-3.4,0.9    C19,110.5,17,111.2,14.7,112z" style="fill: #34ffa8; fill-opacity: 1;"></path><path class="st0" d="M91.3,105.3c5,0.1,24.8,0.5,30.8,0.7c1,0,2.7,0.1,6.1,0.2c3.5,0.1,9.4,0.3,14.5,0.4c5,0.1,9.2,0.2,9.2,0.2    c4.4,0.1,8.8,0.2,13.3,0.2c4.1,0.1,8.2,0,12.3,0.7c3.5,0.6,6.8,3.1,8.8,6c1.2,1.7,2.1,3.7,2.2,6.3c0-2.5-0.2-4.7-0.9-6.9    c-0.7-2.2-2.1-4.5-4.7-6.6c-2-1.6-4.5-2.5-7-2.9c-2.9-0.5-6-0.3-8.9-0.3c-2.4,0-4.9,0.1-7.1,0.2c-4.4,0.2-7.9,0.3-7.9,0.3    s-4.2,0.1-9.2,0.2c-5,0.1-11,0.3-14.5,0.4c-3.4,0.1-5.1,0.2-6.1,0.2C116,104.8,96.3,105.2,91.3,105.3z" style="fill: #34ffa8; fill-opacity: 1;"></path><path class="st0" d="M138.5,129.4" style="fill: #34ffa8; fill-opacity: 1;"></path><path class="st0" d="M53.7,135.4c5,0.1,8.4,0.5,14.4,0.7c1,0,2.7,0.1,6.1,0.2c4,0.1,10.8,0.3,16.6,0.5c5.8,0.1,10.5,0.2,10.5,0.2    s4,0.1,9.1,0.3c2.5,0.1,5.4,0.2,8.1,0.2c2.7,0,5.4,0,7.6-0.1c4.6-0.1,7.4-0.3,8.9-0.4c6-0.4,9.4-1.3,14.4-1.5    c-5-0.2-8.4-1.2-14.4-1.5c-1.5-0.1-4.3-0.3-8.9-0.4c-2.2-0.1-4.9-0.1-7.6-0.1c-2.7,0-5.6,0.1-8.1,0.2c-5.1,0.2-9.1,0.3-9.1,0.3    s-4.8,0.1-10.5,0.2c-5.8,0.2-12.6,0.3-16.6,0.5c-3.4,0.1-5.1,0.2-6.1,0.2C62.1,134.9,58.7,135.3,53.7,135.4z" style="fill: #34ffa8; fill-opacity: 1;"></path><path class="st0" d="M174.4,130.2c0.6,2,0.7,3.9,0.2,5.7c-0.5,1.8-1.5,3.6-3.4,5.2c-0.2,0.1-0.3,0.3-0.6,0.4    c-0.2,0.2-0.5,0.4-0.9,0.5c-0.2,0.1-0.4,0.2-0.6,0.3c-0.2,0.1-0.4,0.2-0.7,0.3c-0.2,0.1-0.5,0.2-0.8,0.3c-0.3,0.1-0.6,0.2-0.9,0.2    c-1.1,0.2-2.6,0.3-4-0.1c-1.5-0.3-3-1.1-4.1-2c-1.2-0.9-2-2-2.4-2.8c-0.2-0.4-0.4-0.8-0.5-1c-0.1-0.3-0.1-0.4-0.1-0.4    s0-0.1-0.1-0.3c-0.1-0.2-0.1-0.5-0.3-0.9c-0.2-0.8-0.3-1.9-0.2-3.2c0.1-1.3,0.5-2.7,1.2-3.9c0.7-1.2,1.6-2.3,2.6-3    c0.7-0.6,1.4-0.9,2.1-1.3c0.7-0.3,1.3-0.5,1.9-0.6c0.6-0.1,1.1-0.2,1.5-0.2c0.4,0,0.8,0,1.1,0c2.5,0.1,4.3,1,5.8,2.2    C172.7,126.6,173.7,128.2,174.4,130.2c-0.7-2-1.7-3.5-3.1-4.8c-0.7-0.7-1.5-1.2-2.4-1.8c-0.9-0.5-2.1-1-3.4-1.2    c-0.3-0.1-0.7-0.1-1.2-0.2c-0.5-0.1-1.1-0.1-1.7,0c-0.7,0-1.4,0.2-2.2,0.4c-0.8,0.2-1.7,0.5-2.7,1.1c-1.3,0.7-2.6,1.8-3.7,3.3    c-1.1,1.5-1.8,3.3-2,5c-0.3,1.7-0.1,3.3,0.1,4.4c0.1,0.5,0.3,1,0.4,1.3c0.1,0.3,0.2,0.4,0.2,0.4s0.3,0.8,0.9,1.9    c0.7,1.1,1.8,2.5,3.5,3.6c1.6,1.1,3.6,1.8,5.6,1.9c1.9,0.2,3.7-0.2,4.9-0.7c0.4-0.1,0.7-0.3,1-0.4c0.3-0.1,0.6-0.3,0.8-0.4    c0.3-0.2,0.5-0.3,0.7-0.4c0.2-0.2,0.4-0.3,0.6-0.4c0.4-0.2,0.6-0.5,0.8-0.7c0.2-0.2,0.4-0.4,0.6-0.6c0.9-1,1.5-2,2-3    c0.4-1,0.8-1.9,0.9-2.9C175.1,134.1,175,132.2,174.4,130.2z" style="fill: #34ffa8; fill-opacity: 1;"></path><path class="st0" d="M49.6,124.8c0.9,2.8,0.9,5.3,0.3,7.8c-0.3,1.3-0.8,2.5-1.6,3.7c-0.7,1.2-1.7,2.4-3,3.4    c-0.2,0.2-0.5,0.4-0.8,0.6c-0.3,0.2-0.7,0.5-1.2,0.7c-0.2,0.1-0.5,0.3-0.8,0.4c-0.3,0.1-0.6,0.2-0.9,0.4c-0.3,0.1-0.7,0.3-1.1,0.4    c-0.4,0.1-0.8,0.2-1.3,0.3c-1.5,0.3-3.5,0.4-5.5-0.1c-2.1-0.4-4.1-1.5-5.6-2.7c-1.6-1.2-2.7-2.7-3.3-3.9c-0.3-0.6-0.5-1.1-0.7-1.4    c-0.1-0.3-0.2-0.5-0.2-0.5s-0.1-0.2-0.2-0.4c-0.1-0.3-0.2-0.7-0.4-1.3c-0.2-1.1-0.5-2.6-0.3-4.4c0.2-1.7,0.7-3.7,1.7-5.4    c0.9-1.7,2.2-3.1,3.5-4.1c0.9-0.8,1.9-1.3,2.8-1.7c0.9-0.4,1.8-0.7,2.6-0.9c0.4-0.1,0.8-0.1,1.1-0.2c0.3-0.1,0.7-0.1,1-0.1    c0.6,0,1.1-0.1,1.5,0c1.7,0.1,3.2,0.4,4.5,0.9c1.3,0.5,2.5,1.2,3.5,2C47.2,119.9,48.6,122,49.6,124.8c-1-2.7-2.4-4.9-4.3-6.6    c-0.9-0.9-2.1-1.7-3.3-2.4c-1.3-0.7-2.8-1.3-4.6-1.7c-0.4-0.1-1-0.2-1.7-0.2c-0.3,0-0.7-0.1-1.1-0.1c-0.4,0-0.8,0-1.3,0    c-0.9,0.1-1.9,0.2-3.1,0.5c-1.1,0.3-2.4,0.7-3.7,1.5c-1.7,0.9-3.6,2.5-5.1,4.5c-1.5,2-2.4,4.5-2.8,6.8c-0.4,2.3-0.1,4.5,0.2,6    c0.2,0.7,0.3,1.3,0.5,1.7c0.2,0.4,0.2,0.6,0.2,0.6s0.1,0.3,0.3,0.7c0.2,0.5,0.5,1.1,1,1.9c0.9,1.5,2.5,3.5,4.7,4.9    c2.2,1.5,5,2.5,7.6,2.7c2.6,0.2,5-0.3,6.7-0.9c0.5-0.2,1-0.4,1.4-0.6c0.4-0.2,0.8-0.4,1.2-0.6c0.3-0.2,0.7-0.4,1-0.6    c0.3-0.2,0.5-0.4,0.8-0.6c0.5-0.3,0.8-0.7,1.2-1c0.3-0.3,0.6-0.5,0.8-0.8c1.2-1.3,2.1-2.7,2.7-4.1c0.6-1.3,1-2.6,1.3-3.9    C50.6,130.1,50.4,127.6,49.6,124.8z" style="fill: #34ffa8; fill-opacity: 1;"></path><path class="st0" d="M68.9,123.2c-0.5,0.3-0.7,0.4-0.7,0.7c0,0.3,0.3,2,0.3,2s0.2,1.6,0.3,2c0,0.3,0.1,0.5,0.1,0.7    c0-0.3,0.1-0.4,0.1-0.7c0-0.3,0.3-2,0.3-2s0.2-1.6,0.3-2C69.7,123.6,69.4,123.4,68.9,123.2z" style="fill: #34ffa8; fill-opacity: 1;"></path><path class="st0" d="M73.2,123.2c-0.5,0.3-0.7,0.4-0.7,0.7c0,0.3,0.3,2,0.3,2s0.2,1.6,0.3,2c0,0.3,0.1,0.5,0.1,0.7    c0-0.3,0.1-0.4,0.1-0.7c0-0.3,0.3-2,0.3-2s0.2-1.6,0.3-2C73.9,123.6,73.7,123.4,73.2,123.2z" style="fill: #34ffa8; fill-opacity: 1;"></path><path class="st0" d="M77.4,123.2c-0.5,0.3-0.7,0.4-0.7,0.7c0,0.3,0.3,2,0.3,2s0.2,1.6,0.3,2c0,0.3,0.1,0.5,0.1,0.7    c0-0.3,0.1-0.4,0.1-0.7c0-0.3,0.3-2,0.3-2s0.2-1.6,0.3-2C78.1,123.6,77.9,123.4,77.4,123.2z" style="fill: #34ffa8; fill-opacity: 1;"></path><path class="st0" d="M81.6,123.2c-0.5,0.3-0.7,0.4-0.7,0.7c0,0.3,0.3,2,0.3,2s0.2,1.6,0.3,2c0,0.3,0.1,0.5,0.1,0.7    c0-0.3,0.1-0.4,0.1-0.7c0-0.3,0.3-2,0.3-2s0.2-1.6,0.3-2C82.3,123.6,82.1,123.4,81.6,123.2z" style="fill: #34ffa8; fill-opacity: 1;"></path><path class="st0" d="M85.9,123.2c-0.5,0.3-0.7,0.4-0.7,0.7c0,0.3,0.3,2,0.3,2s0.2,1.6,0.3,2c0,0.3,0.1,0.5,0.1,0.7    c0-0.3,0.1-0.4,0.1-0.7c0-0.3,0.3-2,0.3-2s0.2-1.6,0.3-2C86.6,123.6,86.4,123.4,85.9,123.2z" style="fill: #34ffa8; fill-opacity: 1;"></path></svg> <g transform="rotate(0 287 407.5)"><svg y="382" viewBox="-173.72671508789062 -51.114009857177734 344.425537109375 51.63827133178711" x="115" height="51" width="344" style="overflow: visible;"><g fill="#A6EACA" fill-opacity="1" style=""><path d="M15.41-17.03L15.41-17.03Q15.41-15.84 14.93-14.73Q14.45-13.63 13.66-12.56Q12.87-11.48 11.88-10.44Q10.89-9.41 9.90-8.42L9.90-8.42Q9.34-7.85 8.60-7.10Q7.85-6.34 7.19-5.51Q6.53-4.69 6.09-3.93Q5.64-3.17 5.64-2.61L5.64-2.61L16.17-2.61L16.17 0L2.31 0Q2.28-0.20 2.28-0.40Q2.28-0.59 2.28-0.76L2.28-0.76Q2.28-2.31 2.79-3.65Q3.30-4.98 4.13-6.17Q4.95-7.36 5.97-8.42Q7.00-9.47 7.99-10.46L7.99-10.46Q8.81-11.25 9.55-12.03Q10.30-12.80 10.87-13.58Q11.45-14.36 11.80-15.18Q12.14-16.00 12.14-16.93L12.14-16.93Q12.14-17.92 11.83-18.61Q11.52-19.30 10.99-19.77Q10.46-20.23 9.75-20.44Q9.04-20.66 8.25-20.66L8.25-20.66Q7.29-20.66 6.50-20.39Q5.71-20.13 5.08-19.78Q4.46-19.44 4.03-19.06Q3.60-18.68 3.37-18.48L3.37-18.48L1.85-20.66Q2.15-20.99 2.74-21.47Q3.33-21.95 4.16-22.37Q4.98-22.80 6.01-23.10Q7.03-23.40 8.22-23.40L8.22-23.40Q11.81-23.40 13.61-21.73Q15.41-20.06 15.41-17.03Z" transform="translate(-11.306000000000001 0), rotate(18.147769405573495 9.009 -528.5500125088813)"></path><path d="M1.32-5.84L1.32-7.92Q1.95-9.37 3.04-11.30Q4.13-13.23 5.49-15.28Q6.86-17.32 8.43-19.30Q10.00-21.29 11.58-22.87L11.58-22.87L14.52-22.87L14.52-8.35L17.23-8.35L17.23-5.84L14.52-5.84L14.52 0L11.55 0L11.55-5.84L1.32-5.84ZM11.55-8.35L11.55-19.24Q10.56-18.18 9.55-16.88Q8.55-15.58 7.59-14.16Q6.63-12.74 5.79-11.25Q4.95-9.77 4.29-8.35L4.29-8.35L11.55-8.35Z" transform="translate(-11.306000000000001 0), rotate(15.443308216720487 9.273 -528.5500125088813)"></path><path d="" transform="translate(-5.8115000000000006 0), rotate(13.396005262528405 0 -528.5500125088813)"></path><path d="M17.62 0L2.84 0L2.84-22.87L16.80-22.87L16.80-20.13L6.04-20.13L6.04-13.33L15.61-13.33L15.61-10.66L6.04-10.66L6.04-2.74L17.62-2.74L17.62 0Z" transform="translate(-11.0585 0), rotate(11.378304030618345 10.23 -528.5500125088813)"></path><path d="M11.35 0.49L11.35 0.49Q9.11 0.49 7.46-0.20Q5.81-0.89 4.75-2.10Q3.70-3.30 3.18-4.95Q2.67-6.60 2.67-8.51L2.67-8.51L2.67-22.87L5.87-22.87L5.87-8.88Q5.87-5.45 7.39-3.89Q8.91-2.34 11.35-2.34L11.35-2.34Q12.57-2.34 13.58-2.72Q14.59-3.10 15.31-3.89Q16.04-4.69 16.43-5.92Q16.83-7.16 16.83-8.88L16.83-8.88L16.83-22.87L20.03-22.87L20.03-8.51Q20.03-6.60 19.52-4.95Q19.01-3.30 17.94-2.10Q16.86-0.89 15.23-0.20Q13.60 0.49 11.35 0.49Z" transform="translate(-13.352 0), rotate(8.458736993182633 11.352000000000002 -528.5500125088813)"></path><path d="M14.03-9.57L14.03-9.57Q14.55-8.91 15.36-7.84Q16.17-6.77 17.03-5.46Q17.89-4.16 18.73-2.74Q19.57-1.32 20.16 0L20.16 0L16.66 0Q16.00-1.25 15.23-2.54Q14.45-3.83 13.66-5.00Q12.87-6.17 12.09-7.19Q11.32-8.22 10.69-8.98L10.69-8.98Q10.26-8.94 9.82-8.94Q9.37-8.94 8.91-8.94L8.91-8.94L6.04-8.94L6.04 0L2.84 0L2.84-22.54Q4.19-22.87 5.86-22.98Q7.52-23.10 8.91-23.10L8.91-23.10Q13.73-23.10 16.25-21.29Q18.78-19.47 18.78-15.87L18.78-15.87Q18.78-13.60 17.57-11.98Q16.37-10.36 14.03-9.57ZM9.17-20.30L9.17-20.30Q7.13-20.30 6.04-20.20L6.04-20.20L6.04-11.58L8.32-11.58Q9.97-11.58 11.29-11.75Q12.61-11.91 13.51-12.38Q14.42-12.84 14.92-13.68Q15.41-14.52 15.41-15.91L15.41-15.91Q15.41-17.19 14.92-18.05Q14.42-18.91 13.58-19.40Q12.74-19.90 11.60-20.10Q10.46-20.30 9.17-20.30Z" transform="translate(-12.197000000000001 0), rotate(5.40300203324961 11.500499999999999 -528.5500125088813)"></path><path d="M1.91-11.45L1.91-11.45Q1.91-14.39 2.79-16.63Q3.66-18.88 5.16-20.38Q6.67-21.88 8.66-22.64Q10.66-23.40 12.90-23.40L12.90-23.40Q15.11-23.40 17.08-22.64Q19.04-21.88 20.53-20.38Q22.01-18.88 22.89-16.63Q23.76-14.39 23.76-11.45L23.76-11.45Q23.76-8.51 22.89-6.27Q22.01-4.03 20.53-2.52Q19.04-1.02 17.08-0.26Q15.11 0.49 12.90 0.49L12.90 0.49Q10.66 0.49 8.66-0.26Q6.67-1.02 5.16-2.52Q3.66-4.03 2.79-6.27Q1.91-8.51 1.91-11.45ZM5.28-11.45L5.28-11.45Q5.28-9.37 5.81-7.67Q6.34-5.97 7.31-4.79Q8.28-3.60 9.69-2.95Q11.09-2.31 12.84-2.31L12.84-2.31Q14.59-2.31 15.97-2.95Q17.36-3.60 18.33-4.79Q19.30-5.97 19.83-7.67Q20.36-9.37 20.36-11.45L20.36-11.45Q20.36-13.53 19.83-15.23Q19.30-16.93 18.33-18.12Q17.36-19.30 15.97-19.95Q14.59-20.59 12.84-20.59L12.84-20.59Q11.09-20.59 9.69-19.95Q8.28-19.30 7.31-18.12Q6.34-16.93 5.81-15.23Q5.28-13.53 5.28-11.45Z" transform="translate(-14.837 0), rotate(2.169656739624447 12.837 -528.5500125088813)"></path><path d="M8.91-23.10L8.91-23.10Q13.73-23.10 16.32-21.27Q18.91-19.44 18.91-15.81L18.91-15.81Q18.91-13.83 18.20-12.42Q17.49-11.02 16.15-10.15Q14.82-9.27 12.90-8.88Q10.99-8.48 8.58-8.48L8.58-8.48L6.04-8.48L6.04 0L2.84 0L2.84-22.54Q4.19-22.87 5.86-22.98Q7.52-23.10 8.91-23.10ZM9.17-20.30L9.17-20.30Q7.13-20.30 6.04-20.20L6.04-20.20L6.04-11.22L8.45-11.22Q10.10-11.22 11.42-11.43Q12.74-11.65 13.65-12.16Q14.55-12.67 15.05-13.56Q15.54-14.45 15.54-15.84L15.54-15.84Q15.54-17.16 15.03-18.02Q14.52-18.88 13.65-19.39Q12.77-19.90 11.62-20.10Q10.46-20.30 9.17-20.30Z" transform="translate(-11.207 0), rotate(-0.9452816648726241 10.8735 -528.5500125088813)"></path><path d="M21.62 0L18.12 0Q17.56-1.49 17.06-2.92Q16.57-4.36 16.04-5.84L16.04-5.84L5.68-5.84L3.60 0L0.26 0Q1.58-3.63 2.74-6.72Q3.89-9.80 5.00-12.57Q6.11-15.35 7.19-17.87Q8.28-20.39 9.47-22.87L9.47-22.87L12.41-22.87Q13.60-20.39 14.69-17.87Q15.77-15.35 16.88-12.57Q17.98-9.80 19.14-6.72Q20.30-3.63 21.62 0L21.62 0ZM6.60-8.48L15.11-8.48Q14.06-11.35 13.02-14.04Q11.98-16.73 10.86-19.21L10.86-19.21Q9.70-16.73 8.66-14.04Q7.62-11.35 6.60-8.48L6.60-8.48Z" transform="translate(-12.9395 0), rotate(-3.833273531874177 10.9395 -528.5500125088813)"></path><path d="" transform="translate(-5.8115000000000006 0), rotate(-6.075947853127616 0 -528.5500125088813)"></path><path d="M6.04-2.77L16.60-2.77L16.60 0L2.84 0L2.84-22.87L6.04-22.87L6.04-2.77Z" transform="translate(-10.563500000000001 0), rotate(-8.034445640473628 9.718499999999999 -528.5500125088813)"></path><path d="M2.84 0L2.84-22.87L6.04-22.87L6.04 0L2.84 0Z" transform="translate(-6.4385 0), rotate(-10.067934457600767 4.4385 -528.5500125088813)"></path><path d="M21.19 0L18.51 0Q17.79-1.22 16.85-2.74Q15.91-4.26 14.82-5.89Q13.73-7.52 12.56-9.21Q11.38-10.89 10.23-12.46Q9.08-14.03 7.99-15.41Q6.90-16.80 5.97-17.85L5.97-17.85L5.97 0L2.84 0L2.84-22.87L5.38-22.87Q6.93-21.22 8.70-19.02Q10.46-16.83 12.19-14.50Q13.93-12.18 15.46-9.93Q17.00-7.69 18.05-5.94L18.05-5.94L18.05-22.87L21.19-22.87L21.19 0Z" transform="translate(-14.012 0), rotate(-12.5138739385241 12.012 -528.5500125088813)"></path><path d="M17.62 0L2.84 0L2.84-22.87L16.80-22.87L16.80-20.13L6.04-20.13L6.04-13.33L15.61-13.33L15.61-10.66L6.04-10.66L6.04-2.74L17.62-2.74L17.62 0Z" transform="translate(-11.4215 0), rotate(-15.555794761392178 10.23 -528.5500125088813)"></path><path d="M8.15-2.28L8.15-2.28Q13.17-2.28 13.17-5.71L13.17-5.71Q13.17-6.77 12.72-7.51Q12.28-8.25 11.52-8.79Q10.76-9.34 9.78-9.74Q8.81-10.13 7.72-10.53L7.72-10.53Q6.47-10.96 5.35-11.50Q4.22-12.04 3.40-12.79Q2.57-13.53 2.10-14.55Q1.62-15.58 1.62-17.03L1.62-17.03Q1.62-20.03 3.66-21.71Q5.71-23.40 9.31-23.40L9.31-23.40Q11.38-23.40 13.08-22.95Q14.78-22.51 15.58-21.98L15.58-21.98L14.55-19.37Q13.86-19.80 12.49-20.21Q11.12-20.63 9.31-20.63L9.31-20.63Q8.38-20.63 7.59-20.43Q6.80-20.23 6.20-19.83Q5.61-19.44 5.26-18.83Q4.92-18.22 4.92-17.39L4.92-17.39Q4.92-16.47 5.28-15.84Q5.64-15.21 6.30-14.73Q6.96-14.26 7.84-13.86Q8.71-13.46 9.77-13.07L9.77-13.07Q11.25-12.47 12.49-11.88Q13.73-11.29 14.64-10.46Q15.54-9.64 16.04-8.50Q16.53-7.36 16.53-5.74L16.53-5.74Q16.53-2.74 14.34-1.12Q12.14 0.49 8.15 0.49L8.15 0.49Q6.80 0.49 5.66 0.31Q4.52 0.13 3.63-0.12Q2.74-0.36 2.10-0.64Q1.45-0.92 1.09-1.12L1.09-1.12L2.05-3.76Q2.81-3.33 4.36-2.81Q5.91-2.28 8.15-2.28Z" transform="translate(-10.778 0), rotate(-18.210919746441817 8.811 -528.5500125088813)"></path></g></svg></g> <svg y="337" viewBox="0.4399999976158142 6.21999979019165 348.9599914550781 27.520002365112305" x="113" height="27" width="348" style="overflow: visible;"><g fill="#34ffa8" fill-opacity="1" style=""><path d="M0.44 9.77L0.44 6.66L21.16 6.66L21.16 9.77L12.58 9.77L12.58 33.30L9.03 33.30L9.03 9.77L0.44 9.77ZM37.45 25.31L31.23 25.31L31.23 22.05L37.60 22.05Q39.67 22.05 41.06 21.05Q42.44 20.05 43.13 18.43Q43.81 16.80 43.81 14.95L43.81 14.95Q43.81 12.28 42.39 11.03Q40.96 9.77 38.63 9.77L38.63 9.77L31.23 9.77L31.23 6.66L38.78 6.66Q41.44 6.66 43.41 7.62Q45.37 8.58 46.44 10.43Q47.51 12.28 47.51 14.95L47.51 14.95Q47.51 17.43 46.68 19.37Q45.85 21.31 44.42 22.63Q43.00 23.94 41.20 24.62Q39.41 25.31 37.45 25.31L37.45 25.31ZM32.71 33.30L29.16 33.30L29.16 6.66L32.71 6.66L32.71 33.30ZM49.14 33.30L45.00 33.30L38.04 24.27L41.74 23.83L49.14 33.15L49.14 33.30ZM59.43 33.30L55.80 33.30L58.76 15.54Q59.13 13.32 59.86 11.62Q60.58 9.92 61.80 8.73Q63.02 7.55 64.94 6.96Q66.87 6.36 69.64 6.36L69.64 6.36Q70.97 6.36 72.32 6.49Q73.67 6.62 75.12 6.96L75.12 6.96L75.19 7.40Q75.08 8.14 75.03 9.25Q74.97 10.36 74.97 11.47Q74.97 12.58 74.97 13.32L74.97 13.32L74.97 33.30L71.42 33.30L71.42 11.40Q71.42 10.66 71.44 10.01Q71.45 9.36 71.57 8.77L71.57 8.77L72.16 9.84Q71.68 9.62 70.99 9.55Q70.31 9.47 69.49 9.47L69.49 9.47Q67.05 9.47 65.63 10.14Q64.20 10.80 63.48 12.14Q62.76 13.47 62.39 15.54L62.39 15.54L59.43 33.30ZM72.90 25.16L59.50 25.16L59.50 22.05L72.90 22.05L72.90 25.16ZM89.63 33.30L86.07 33.30L86.07 6.66L89.03 6.66L104.35 22.83L104.35 27.82L88.66 11.28L89.63 10.88L89.63 33.30ZM106.20 33.30L102.65 33.30L102.65 6.66L106.20 6.66L106.20 33.30ZM116.12 32.41L116.12 28.93L116.42 28.93Q117.31 29.41 118.43 29.77Q119.56 30.12 120.91 30.30Q122.26 30.49 123.82 30.49L123.82 30.49Q125.59 30.49 126.98 30.14Q128.37 29.78 129.16 28.95Q129.96 28.12 129.96 26.64L129.96 26.64Q129.96 24.86 128.94 24.09Q127.92 23.31 125.89 22.94L125.89 22.94L122.63 22.35Q120.78 22.01 119.23 21.15Q117.68 20.28 116.75 18.72Q115.83 17.17 115.83 14.80L115.83 14.80Q115.83 11.84 117.21 9.93Q118.60 8.03 121.10 7.12Q123.60 6.22 126.93 6.22L126.93 6.22Q128.48 6.22 130.02 6.51Q131.55 6.81 132.55 7.25L132.55 7.25L132.55 10.66L132.25 10.66Q131.37 10.21 130.02 9.84Q128.66 9.47 126.78 9.47L126.78 9.47Q124.71 9.47 123.02 9.99Q121.34 10.51 120.36 11.65Q119.38 12.80 119.38 14.65L119.38 14.65Q119.38 16.98 120.60 17.91Q121.82 18.83 123.97 19.24L123.97 19.24L127.22 19.83Q129.11 20.16 130.51 20.98Q131.92 21.79 132.72 23.14Q133.51 24.49 133.51 26.49L133.51 26.49Q133.51 28.30 132.81 29.67Q132.11 31.04 130.83 31.95Q129.55 32.86 127.78 33.30Q126.00 33.74 123.82 33.74L123.82 33.74Q122.26 33.74 120.88 33.56Q119.49 33.37 118.29 33.08Q117.08 32.78 116.12 32.41L116.12 32.41ZM146.47 33.30L142.91 33.30L142.91 6.66L146.47 6.66L146.47 33.30ZM157.27 22.94L144.99 22.94L144.99 19.83L157.27 19.83L157.27 22.94ZM159.34 9.77L144.99 9.77L144.99 6.66L159.34 6.66L159.34 9.77ZM171.63 33.30L168.08 33.30L168.08 6.66L171.63 6.66L171.63 33.30ZM185.39 33.30L170.15 33.30L170.15 30.19L185.39 30.19L185.39 33.30ZM182.88 20.87L170.15 20.87L170.15 17.76L182.88 17.76L182.88 20.87ZM184.95 9.77L170.15 9.77L170.15 6.66L184.95 6.66L184.95 9.77ZM203.16 25.31L196.94 25.31L196.94 22.05L203.31 22.05Q205.38 22.05 206.77 21.05Q208.15 20.05 208.84 18.43Q209.52 16.80 209.52 14.95L209.52 14.95Q209.52 12.28 208.10 11.03Q206.67 9.77 204.34 9.77L204.34 9.77L196.94 9.77L196.94 6.66L204.49 6.66Q207.15 6.66 209.11 7.62Q211.08 8.58 212.15 10.43Q213.22 12.28 213.22 14.95L213.22 14.95Q213.22 17.43 212.39 19.37Q211.56 21.31 210.13 22.63Q208.71 23.94 206.91 24.62Q205.12 25.31 203.16 25.31L203.16 25.31ZM198.42 33.30L194.87 33.30L194.87 6.66L198.42 6.66L198.42 33.30ZM214.85 33.30L210.71 33.30L203.75 24.27L207.45 23.83L214.85 33.15L214.85 33.30ZM247.27 33.30L238.83 33.30L238.83 30.19L247.12 30.19Q248.79 30.19 250.03 29.40Q251.27 28.60 251.27 26.49L251.27 26.49Q251.27 24.49 250.08 23.72Q248.90 22.94 247.12 22.94L247.12 22.94L238.83 22.94L238.83 19.83L245.79 19.83Q247.49 19.83 248.60 19.00Q249.71 18.17 250.27 16.82Q250.82 15.47 250.82 13.91L250.82 13.91Q250.82 11.58 249.56 10.67Q248.31 9.77 246.09 9.77L246.09 9.77L238.83 9.77L238.83 6.66L246.09 6.66Q250.19 6.66 252.28 8.45Q254.37 10.25 254.37 13.91L254.37 13.91Q254.37 15.39 253.89 16.85Q253.41 18.31 252.43 19.52Q251.45 20.72 250.01 21.46L250.01 21.46L249.82 20.72Q252.23 21.16 253.52 22.68Q254.82 24.20 254.82 26.49L254.82 26.49Q254.82 28.19 254.08 29.75Q253.34 31.30 251.67 32.30Q250.01 33.30 247.27 33.30L247.27 33.30ZM240.31 33.30L236.76 33.30L236.76 6.66L240.31 6.66L240.31 33.30ZM262.67 19.98L262.67 19.98Q262.67 15.91 264.16 12.80Q265.66 9.69 268.46 7.95Q271.25 6.22 275.10 6.22L275.10 6.22Q278.95 6.22 281.74 7.95Q284.53 9.69 286.03 12.80Q287.53 15.91 287.53 19.98L287.53 19.98Q287.53 24.05 286.03 27.16Q284.53 30.27 281.74 32.00Q278.95 33.74 275.10 33.74L275.10 33.74Q271.21 33.74 268.44 32.00Q265.66 30.27 264.16 27.16Q262.67 24.05 262.67 19.98ZM266.37 19.98L266.37 19.98Q266.37 23.38 267.44 25.73Q268.51 28.08 270.47 29.29Q272.43 30.49 275.10 30.49L275.10 30.49Q277.76 30.49 279.72 29.29Q281.68 28.08 282.76 25.73Q283.83 23.38 283.83 19.98L283.83 19.98Q283.83 16.58 282.76 14.23Q281.68 11.88 279.72 10.67Q277.76 9.47 275.10 9.47L275.10 9.47Q272.43 9.47 270.47 10.67Q268.51 11.88 267.44 14.23Q266.37 16.58 266.37 19.98ZM300.71 33.30L297.15 33.30L297.15 6.66L300.11 6.66L315.43 22.83L315.43 27.82L299.74 11.28L300.71 10.88L300.71 33.30ZM317.28 33.30L313.73 33.30L313.73 6.66L317.28 6.66L317.28 33.30ZM336.38 33.30L330.46 33.30L330.46 30.19L336.38 30.19Q339.12 30.19 340.91 29.14Q342.70 28.08 343.76 26.34Q344.81 24.60 345.26 22.55Q345.70 20.50 345.70 18.50L345.70 18.50Q345.70 14.17 343.59 11.97Q341.48 9.77 337.27 9.77L337.27 9.77L330.46 9.77L330.46 6.66L337.27 6.66Q343.15 6.66 346.28 9.64Q349.40 12.62 349.40 18.50L349.40 18.50Q349.40 21.27 348.72 23.92Q348.03 26.57 346.50 28.67Q344.96 30.78 342.48 32.04Q340.00 33.30 336.38 33.30L336.38 33.30ZM331.94 33.30L328.39 33.30L328.39 6.66L331.94 6.66L331.94 33.30Z" transform="translate(0, 0)"></path></g></svg></svg>